<?xml version="1.0" encoding="utf-8"?>
<!-- Generator: Adobe Illustrator 16.0.3, SVG Export Plug-In . SVG Version: 6.00 Build 0)  -->
<!DOCTYPE svg PUBLIC "-//W3C//DTD SVG 1.1//EN" "http://www.w3.org/Graphics/SVG/1.1/DTD/svg11.dtd">
<svg version="1.1" id="Ebene_1" xmlns="http://www.w3.org/2000/svg" xmlns:xlink="http://www.w3.org/1999/xlink" x="0px" y="0px"
	 width="647.633px" height="541px" viewBox="0 0 647.633 541" enable-background="new 0 0 647.633 541" xml:space="preserve">
<path fill="none" stroke="#000000" stroke-miterlimit="10" stroke-dasharray="5.6693" d="M245.727,416.291
	c-0.922,4.503-4.907,7.894-9.683,7.894c-5.458,0-9.885-4.423-9.885-9.884c0-0.738,0.081-1.457,0.232-2.146"/>
<polygon fill="#66FF66" points="492.035,436.457 520.688,333.924 611.505,342.516 492.035,436.459 "/>
<polyline opacity="0.5" fill="#6699FF" enable-background="new    " points="19.598,484.014 152.799,4.444 601.448,46.889 
	464.669,536.831 "/>
<polyline fill="#66FF66" points="6.878,422.721 43.386,394.012 34.669,425.21 "/>
<polyline fill="#66FF66" points="34.717,425.037 43.386,394.012 492.035,436.457 454.902,465.658 "/>
<line fill="none" stroke="#FFFF00" stroke-width="3" stroke-linecap="round" stroke-miterlimit="10" x1="307.162" y1="285.311" x2="415.256" y2="93.468"/>
<line fill="none" stroke="#000000" stroke-width="1.9843" stroke-miterlimit="10" x1="218.988" y1="441.801" x2="199.209" y2="476.902"/>
<line fill="none" stroke="#000000" stroke-width="1.9843" stroke-miterlimit="10" stroke-dasharray="4.252" x1="234.5" y1="414.233" x2="217.822" y2="443.833"/>
<line fill="none" stroke="#000000" stroke-width="2" stroke-linecap="round" stroke-miterlimit="10" x1="307.162" y1="285.311" x2="235.666" y2="412.201"/>
<g>
	<path fill="none" stroke="#000000" stroke-width="2.126" stroke-linecap="round" stroke-miterlimit="10" d="M298.781,418.174
		c3.723-13.313,0.617-27.19-8.438-37.715c-9.054-10.521-23.942-17.557-40.467-19.119c-16.523-1.562-34.479,2.363-48.792,10.674
		c-14.314,8.313-24.814,20.9-28.536,34.22"/>
	
		<path opacity="0.33" fill="none" stroke="#000000" stroke-width="2.126" stroke-linecap="round" stroke-miterlimit="10" enable-background="new    " d="
		M191.132,452.83c-5.804-3.856-10.561-8.662-13.979-14.072"/>
	<polygon opacity="0.33" stroke="#000000" stroke-width="2.126" enable-background="new    " points="188.269,457.404 
		194.101,448.088 208.375,460.637 	"/>
</g>
<polygon stroke="#000000" stroke-width="1.9843" stroke-linecap="round" stroke-miterlimit="10" points="477.614,493.758 
	488.041,487.962 494.608,494.622 "/>
<polyline stroke="#000000" stroke-width="1.9843" stroke-linecap="round" stroke-miterlimit="10" points="240.631,414.301 
	362.933,452.149 364.036,452.491 482.052,490.188 "/>
<g>
	<polygon points="333.244,421.771 326.21,429.82 316.236,428.367 	"/>
</g>
<g>
	<polygon fill="#0000FF" stroke="#000000" stroke-width="1.9843" points="518.49,373.09 515.188,353.613 522.451,365.189 	"/>
	<path fill="none" stroke="#000000" stroke-width="1.9843" stroke-linecap="round" stroke-miterlimit="10" d="M520.494,369.092
		c3.125,11.551,5.312,25.318,6.347,39.998"/>
</g>
<polygon fill="#0000FF" stroke="#0000FF" stroke-linecap="round" stroke-miterlimit="10" points="454.607,311.474 465.945,292.658 
	464.366,312.397 "/>
<path fill="none" stroke="#0000FF" stroke-width="3" stroke-linecap="round" stroke-miterlimit="10" d="M374.863,425.371
	c37.936-33.313,69.875-78.57,88.429-125.29l10.178-30.372c13.508-49.463,10.789-97.16-7.455-130.804
	c-18.246-33.644-51.83-52.893-92.104-52.789c-40.273,0.104-86.826,19.56-127.671,53.355
	c-40.842,33.795-75.558,81.589-95.203,131.068l-10.179,30.373c-9.995,36.602-11.29,72.334-3.694,101.971"/>
<g>
	<g>
		<path fill="none" stroke="#0000FF" stroke-width="2.8346" stroke-linecap="round" stroke-miterlimit="10" d="M336.632,453.726
			c0.603-0.367,1.203-0.741,1.806-1.118"/>
		
			<path fill="none" stroke="#0000FF" stroke-width="2.8346" stroke-linecap="round" stroke-miterlimit="10" stroke-dasharray="3.9454,3.9454" d="
			M341.761,450.485c10.237-6.634,20.294-14.141,30-22.43"/>
		<path fill="none" stroke="#0000FF" stroke-width="2.8346" stroke-linecap="round" stroke-miterlimit="10" d="M373.261,426.769
			c0.534-0.464,1.068-0.93,1.603-1.396"/>
	</g>
</g>
<path fill="none" stroke="#0000FF" stroke-width="2.8346" stroke-linecap="round" stroke-miterlimit="10" d="M150.824,435.994
	c9.155,15.177,21.468,27.313,36.312,35.557c24.465,13.586,55.721,16.543,88.813,8.402c20.006-4.922,40.64-13.889,60.683-26.229"/>
<g>
	<g>
		<path fill="none" stroke="#0000FF" stroke-width="2.8346" stroke-linecap="round" stroke-miterlimit="10" d="M137.161,402.883
			c0.176,0.688,0.355,1.374,0.543,2.059"/>
		
			<path fill="none" stroke="#0000FF" stroke-width="2.8346" stroke-linecap="round" stroke-miterlimit="10" stroke-dasharray="4.5267,4.5267" d="
			M138.969,409.286c2.531,8.187,5.771,15.849,9.662,22.908"/>
		<path fill="none" stroke="#0000FF" stroke-width="2.8346" stroke-linecap="round" stroke-miterlimit="10" d="M149.745,434.166
			c0.354,0.614,0.714,1.224,1.079,1.828"/>
	</g>
</g>
<polygon fill="#0000FF" stroke="#0000FF" stroke-linecap="round" stroke-miterlimit="10" points="146.249,286.009 157.588,267.198 
	147.827,266.274 "/>
<g>
	<path d="M158.666,16.704c0.777-0.106,1.982-0.109,3.137,0.004c1.667,0.165,2.655,0.569,3.247,1.323
		c0.521,0.583,0.716,1.42,0.412,2.474c-0.377,1.312-1.546,2.36-3.03,2.725l-0.019,0.06c1.144,0.419,2.274,1.616,1.705,3.603
		c-0.332,1.153-1.023,1.984-1.887,2.574c-1.13,0.768-2.698,1.021-4.812,0.813c-1.149-0.115-2.01-0.281-2.542-0.416L158.666,16.704z
		 M158.757,22.355l1.517,0.149c1.745,0.173,3.062-0.698,3.434-1.99c0.443-1.55-0.502-2.299-2.188-2.465
		c-0.769-0.077-1.227-0.061-1.513-0.027L158.757,22.355z M156.914,28.756c0.329,0.094,0.782,0.159,1.379,0.218
		c1.727,0.171,3.506-0.328,4.065-2.275c0.521-1.809-0.771-2.734-2.595-2.914l-1.381-0.138L156.914,28.756z"/>
	<path d="M172.446,29.271c-0.238,0.834-0.438,1.653-0.527,2.319l-1.517-0.15l0.195-1.228l-0.059-0.006
		c-0.715,0.705-1.929,1.281-3.25,1.15c-1.879-0.186-2.443-1.652-2.043-3.044c0.668-2.325,3.027-3.4,6.608-3.025l0.058-0.198
		c0.229-0.796,0.437-2.268-1.471-2.436c-0.882-0.088-1.855,0.082-2.643,0.475l-0.045-1.211c0.909-0.42,2.139-0.646,3.31-0.531
		c2.856,0.283,2.971,2.359,2.415,4.287L172.446,29.271z M171.547,26.503c-1.83-0.222-4.02-0.091-4.559,1.777
		c-0.328,1.153,0.25,1.743,1.096,1.826c1.229,0.121,2.241-0.596,2.745-1.385c0.106-0.173,0.187-0.369,0.235-0.549L171.547,26.503z"
		/>
	<path d="M178.547,17.731l1.688,0.166l-1.728,6.003l0.039,0.004c0.411-0.471,0.965-0.886,1.563-1.112
		c0.593-0.269,1.236-0.389,1.869-0.325c1.247,0.123,3.016,1.114,2.06,4.434l-1.646,5.726l-1.688-0.167l1.59-5.526
		c0.453-1.569,0.269-2.917-1.324-3.074c-1.093-0.108-2.164,0.603-2.767,1.524c-0.163,0.229-0.259,0.485-0.354,0.824l-1.669,5.804
		l-1.688-0.167L178.547,17.731z"/>
	<path d="M187.148,25.88c0.292-1.013,0.502-1.811,0.673-2.611l1.497,0.148l-0.354,1.579L189,25c0.72-0.849,2.05-1.637,3.583-1.484
		c1.284,0.128,3.051,1.119,2.103,4.419l-1.649,5.744l-1.688-0.167l1.595-5.546c0.446-1.55,0.27-2.917-1.321-3.074
		c-1.097-0.108-2.191,0.621-2.777,1.564c-0.141,0.211-0.271,0.525-0.354,0.805l-1.668,5.803l-1.688-0.167L187.148,25.88z"/>
	<path d="M198.031,29.533c-0.643,2.369,0.519,3.485,2.203,3.652c1.209,0.119,2.021-0.025,2.708-0.223l-0.049,1.263
		c-0.674,0.22-1.808,0.455-3.284,0.309c-2.837-0.28-3.997-2.419-3.169-5.302c0.841-2.921,3.168-5.043,5.873-4.775
		c3.028,0.301,3.021,3.142,2.513,4.91c-0.104,0.357-0.201,0.634-0.3,0.829L198.031,29.533z M203.32,28.769
		c0.334-1.091,0.376-2.886-1.503-3.072c-1.728-0.17-2.924,1.388-3.404,2.587L203.32,28.769z"/>
	<path d="M209.442,20.789l1.688,0.167l-1.732,6.022l0.04,0.003c0.901-1.015,2.17-1.584,3.668-1.436
		c2.301,0.229,3.34,2.375,2.504,5.277c-0.995,3.458-3.597,4.959-5.668,4.754c-1.342-0.134-2.24-0.774-2.586-2.116l-0.038-0.003
		l-0.554,1.579l-1.457-0.144c0.246-0.65,0.546-1.623,0.79-2.478L209.442,20.789z M208.18,31.212
		c-0.063,0.219-0.107,0.439-0.126,0.642c-0.023,1.245,0.734,2.178,1.941,2.298c1.781,0.177,3.249-1.211,3.883-3.417
		c0.562-1.949,0.077-3.694-1.729-3.872c-1.146-0.113-2.464,0.615-3.168,1.895c-0.119,0.213-0.228,0.448-0.309,0.727L208.18,31.212z"
		/>
	<path d="M218.57,31.566c-0.643,2.368,0.519,3.485,2.203,3.651c1.209,0.12,2.021-0.025,2.706-0.223l-0.048,1.263
		c-0.674,0.22-1.808,0.455-3.283,0.31c-2.837-0.281-3.997-2.421-3.167-5.302c0.84-2.922,3.165-5.043,5.869-4.775
		c3.029,0.3,3.021,3.142,2.512,4.91c-0.101,0.357-0.199,0.634-0.297,0.829L218.57,31.566z M223.857,30.801
		c0.335-1.091,0.379-2.886-1.501-3.072c-1.728-0.17-2.924,1.389-3.404,2.587L223.857,30.801z"/>
	<path d="M227.938,29.917c0.293-1.014,0.502-1.811,0.673-2.611l1.498,0.148l-0.356,1.579l0.04,0.004
		c0.716-0.85,2.048-1.637,3.581-1.485c1.286,0.128,3.053,1.12,2.104,4.42l-1.654,5.744l-1.686-0.168l1.595-5.545
		c0.446-1.551,0.269-2.917-1.324-3.074c-1.094-0.108-2.188,0.621-2.776,1.563c-0.14,0.212-0.271,0.526-0.352,0.805l-1.67,5.804
		l-1.688-0.168L227.938,29.917z"/>
	<path d="M238.821,33.569c-0.643,2.369,0.519,3.485,2.204,3.653c1.208,0.119,2.021-0.025,2.707-0.224l-0.049,1.264
		c-0.674,0.218-1.808,0.455-3.283,0.309c-2.839-0.281-3.999-2.42-3.169-5.302c0.841-2.922,3.167-5.043,5.871-4.775
		c3.029,0.3,3.021,3.142,2.512,4.91c-0.104,0.357-0.199,0.634-0.297,0.828L238.821,33.569z M244.109,32.806
		c0.335-1.092,0.377-2.887-1.502-3.072c-1.727-0.171-2.924,1.387-3.405,2.586L244.109,32.806z"/>
</g>
<g>
	<path d="M329,291.965c-0.119-2.256-0.266-4.992-0.266-6.984h-0.047c-0.576,1.873-1.226,3.912-2.041,6.146l-2.854,7.848h-1.584
		l-2.643-7.701c-0.769-2.307-1.394-4.369-1.849-6.289h-0.049c-0.047,2.017-0.168,4.705-0.313,7.15l-0.435,6.938h-1.991l1.129-16.177
		h2.664l2.76,7.822c0.674,1.992,1.201,3.77,1.635,5.448h0.047c0.433-1.632,1.008-3.408,1.729-5.448l2.881-7.822h2.664l1.01,16.177
		h-2.063L329,291.965z"/>
</g>
<g>
	<path d="M340.795,442.177h-7.301v-4.007h0.372c0.295,1.213,0.592,1.511,1.631,1.511h3.906l-0.049-0.691
		c-1.905-0.568-3.113-1.213-4.132-2.695c-1.729-2.544-1.437-5.438-0.396-7.29c0.986-1.807,2.153-2.351,2.823-2.745
		c1.135-0.671,2.768-1.089,4.521-1.089c1.752,0,3.386,0.418,4.521,1.089c0.67,0.396,1.837,0.938,2.823,2.745
		c1.041,1.854,1.336,4.746-0.396,7.29c-1.018,1.482-2.226,2.129-4.132,2.695l-0.049,0.691h3.905c1.04,0,1.339-0.298,1.632-1.511
		h0.372v4.007h-7.296l0.395-3.755c0.796-0.349,1.956-0.593,2.919-2.815c0.818-1.881,1.088-6.16-1.113-8.359
		c-1.01-1.013-2.325-1.285-3.582-1.285c-1.267,0-2.571,0.272-3.583,1.285c-2.205,2.203-1.931,6.479-1.111,8.359
		c0.963,2.224,2.123,2.468,2.919,2.815L340.795,442.177z"/>
</g>
<g>
	<path d="M221.56,386.941c0.912-0.22,2.376-0.359,3.815-0.359c2.088,0,3.433,0.359,4.416,1.176c0.84,0.623,1.368,1.584,1.368,2.855
		c0,1.584-1.058,2.951-2.736,3.553v0.072c1.536,0.356,3.336,1.631,3.336,4.028c0,1.396-0.552,2.447-1.392,3.24
		c-1.104,1.031-2.93,1.515-5.568,1.515c-1.439,0-2.544-0.099-3.239-0.191V386.941L221.56,386.941z M223.648,393.564h1.896
		c2.185,0,3.479-1.179,3.479-2.734c0-1.873-1.416-2.641-3.526-2.641c-0.96,0-1.514,0.069-1.85,0.145L223.648,393.564
		L223.648,393.564z M223.648,401.293c0.434,0.072,1.008,0.096,1.752,0.096c2.16,0,4.151-0.791,4.151-3.143
		c0-2.188-1.896-3.121-4.176-3.121h-1.729L223.648,401.293L223.648,401.293z"/>
</g>
<g>
	<path d="M218.283,347.588c-1.535,0.576-2.111,1.008-2.615,1.848c-1.271,2.091-1.129,4.851-0.84,6.457
		c0.238,1.248,0.525,1.752,0.959,2.16c0.479,0.455,1.008,0.576,1.683,0.383c1.584-0.452,1.702-2.424,1.821-2.879
		c-0.434-1.248-0.912-2.76-0.576-4.68c0.193-1.057,0.529-1.609,1.152-1.609c0.625,0,0.961,0.556,1.15,1.609
		c0.336,1.92-0.146,3.432-0.576,4.68c0.121,0.455,0.24,2.427,1.824,2.879c0.672,0.193,1.2,0.072,1.68-0.383
		c0.434-0.408,0.723-0.912,0.963-2.16c0.285-1.606,0.432-4.366-0.842-6.457c-0.504-0.84-1.08-1.271-2.615-1.848v-0.408
		c0.84,0.052,2.256-0.119,3.527,0.84c1.514,1.152,2.328,2.689,2.521,4.777c0.168,1.729,0,2.81-0.526,4.08
		c-0.435,1.031-1.347,2.016-2.16,2.375c-0.672,0.313-1.896,0.625-3.07-0.072c-0.842-0.479-1.227-0.84-1.873-1.967
		c-0.646,1.127-1.031,1.486-1.871,1.967c-1.178,0.697-2.399,0.388-3.072,0.072c-0.815-0.359-1.729-1.344-2.159-2.375
		c-0.527-1.273-0.695-2.354-0.527-4.08c0.191-2.088,1.01-3.625,2.521-4.777c1.271-0.959,2.688-0.788,3.527-0.84v0.408H218.283z"/>
</g>
<g>
	<path d="M191.451,484.432c1.008-0.19,2.326-0.336,4.008-0.336c2.063,0,3.576,0.479,4.537,1.347c0.887,0.768,1.438,1.94,1.438,3.383
		c0,1.465-0.433,2.617-1.271,3.457c-1.104,1.176-2.904,1.772-4.945,1.772c-0.622,0-1.198-0.021-1.68-0.145v6.479h-2.088
		L191.451,484.432L191.451,484.432z M193.539,492.207c0.457,0.119,1.058,0.168,1.729,0.168c2.544,0,4.059-1.248,4.059-3.432
		c0-2.16-1.515-3.191-3.815-3.191c-0.912,0-1.608,0.096-1.97,0.168L193.539,492.207L193.539,492.207z"/>
</g>
<g>
	<path d="M318.676,227.409c0.787,1.803,2.158,3.556,4.681,5.012c2.467,1.424,4.666,1.678,6.61,1.508l-0.543,0.942
		c-1.653,0.209-3.973,0.127-6.674-1.433c-2.707-1.582-3.959-3.542-4.619-5.087L318.676,227.409z"/>
	<path d="M331.371,225.354c1.553,0.896,2.297,1.751,2.521,2.732c0.213,1.009-0.123,2.071-0.609,2.917
		c-0.467,0.804-1.172,1.579-1.844,1.911l-0.769-0.849c0.547-0.275,1.197-0.824,1.679-1.655c0.719-1.247,0.596-2.538-1.105-3.521
		l-0.734-0.424l-0.018,0.028c0.416,0.72,0.488,1.743-0.109,2.782c-0.959,1.663-3.063,2.039-4.932,0.958
		c-2.271-1.312-2.691-3.531-1.797-5.083c0.674-1.164,1.629-1.443,2.356-1.428l0.019-0.028l-0.975-0.617l0.625-1.081
		c0.444,0.313,0.979,0.64,1.797,1.111L331.371,225.354z M327.578,224.79c-0.195-0.112-0.385-0.202-0.582-0.243
		c-0.85-0.194-1.768,0.052-2.285,0.952c-0.672,1.164-0.168,2.563,1.396,3.467c1.305,0.752,2.805,0.713,3.557-0.589
		c0.439-0.762,0.359-1.713-0.283-2.418c-0.153-0.181-0.375-0.345-0.596-0.473L327.578,224.79z"/>
	<path d="M328.908,221.235c-0.789-0.456-1.479-0.834-2.123-1.153l0.613-1.067l1.35,0.705l0.023-0.042
		c-0.726-0.825-0.859-1.901-0.39-2.718c0.072-0.125,0.142-0.214,0.23-0.309l1.139,0.656c-0.094,0.131-0.182,0.248-0.274,0.414
		c-0.496,0.859-0.197,1.845,0.606,2.531c0.164,0.131,0.351,0.257,0.56,0.377l3.573,2.064l-0.702,1.219L328.908,221.235z"/>
	<path d="M337.813,216.822c-1.041,1.801-3.187,2.447-5.308,1.223c-2.243-1.296-2.705-3.539-1.643-5.381
		c1.111-1.926,3.266-2.42,5.303-1.245c2.494,1.44,2.572,3.796,1.652,5.39L337.813,216.822z M336.922,216.252
		c0.673-1.164,0.082-2.669-1.442-3.549c-1.135-0.656-2.892-0.912-3.724,0.529c-0.823,1.427,0.146,2.819,1.421,3.555
		c1.469,0.848,3.059,0.657,3.737-0.521L336.922,216.252z"/>
	<path d="M340.477,211.856l-6.265-3.616c-1.58-0.912-2.25-1.798-2.444-2.742c-0.175-0.785-0.023-1.586,0.455-2.417
		c0.768-1.33,2.248-2.008,3.772-1.128c0.471,0.272,0.805,0.687,0.949,0.975c-0.096,0.776,0.076,1.374,0.549,1.646
		c0.471,0.272,0.922,0.163,1.611-0.01c0.875-0.234,1.785-0.466,2.781,0.109c1.303,0.752,1.659,2.214,0.771,3.752
		c-0.307,0.526-0.699,1.019-1.141,1.301l-0.802-0.758c0.39-0.256,0.709-0.588,0.949-1.004c0.512-0.887,0.258-1.662-0.379-2.03
		c-0.582-0.336-1.123-0.297-1.859-0.076c-0.891,0.262-1.69,0.464-2.467,0.017c-0.707-0.408-1.067-1.189-0.992-2.217
		c-0.118-0.179-0.288-0.333-0.524-0.469c-0.955-0.552-1.854-0.276-2.342,0.569c-0.615,1.067-0.211,2.095,1.756,3.23l6.317,3.648
		L340.477,211.856z"/>
	<path d="M342.115,201.755c1.664,0.924,2.943,0.277,3.646-0.942c0.504-0.873,0.663-1.501,0.739-2.048l0.984,0.274
		c-0.053,0.542-0.25,1.426-0.863,2.493c-1.188,2.051-3.274,2.506-5.285,1.346c-2.037-1.176-2.936-3.301-1.809-5.255
		c1.266-2.189,3.52-1.646,4.752-0.934c0.248,0.144,0.438,0.27,0.559,0.378L342.115,201.755z M343.297,197.69
		c-0.754-0.454-2.164-0.825-2.948,0.533c-0.72,1.247,0.112,2.429,0.901,3.014L343.297,197.69z"/>
	<path d="M341.945,187.746l3.906,2.256l2.608-4.517l-3.907-2.256l0.704-1.219l9.339,5.392l-0.703,1.219l-4.379-2.528l-2.609,4.517
		l4.381,2.528l-0.703,1.219l-9.34-5.392L341.945,187.746z"/>
	<path d="M356.9,179.698c0.582,0.336,1.166,0.636,1.664,0.831l-0.633,1.094l-0.91-0.377L357,181.288
		c0.316,0.665,0.363,1.671-0.188,2.627c-0.785,1.358-2.142,1.499-3.109,0.938c-1.621-0.936-1.678-2.889-0.166-5.472l-0.139-0.08
		c-0.555-0.32-1.652-0.751-2.435,0.628c-0.366,0.637-0.563,1.393-0.516,2.048l-0.979-0.195c-0.025-0.754,0.211-1.708,0.698-2.553
		c1.189-2.064,2.879-1.755,4.224-0.979L356.9,179.698z M354.396,179.841c-0.795,1.314-1.433,2.96-0.129,3.712
		c0.803,0.464,1.469,0.146,1.819-0.464c0.513-0.887,0.285-1.775-0.17-2.297c-0.104-0.113-0.231-0.207-0.356-0.279L354.396,179.841z"
		/>
	<path d="M349.799,172.992l0.703-1.219l9.838,5.68l-0.704,1.219L349.799,172.992z"/>
	<path d="M351.67,169.75l0.703-1.219l4.197,2.424l0.018-0.028c-0.5-0.861-0.522-1.91,0.103-2.99c0.959-1.663,3.02-2.026,5.039-0.858
		c2.412,1.392,2.725,3.604,1.858,5.101c-0.563,0.97-1.373,1.516-2.559,1.517l-0.016,0.027l1.067,0.709l-0.608,1.053
		c-0.433-0.306-1.104-0.711-1.699-1.056L351.67,169.75z M359.523,172.659c0.151,0.088,0.313,0.162,0.469,0.214
		c0.98,0.252,1.979-0.132,2.482-1.005c0.743-1.289,0.137-2.637-1.402-3.524c-1.355-0.784-2.906-0.755-3.658,0.547
		c-0.479,0.831-0.348,1.943,0.435,2.707c0.129,0.129,0.278,0.253,0.473,0.365L359.523,172.659z"/>
	<path d="M367.18,161.893c0.582,0.336,1.166,0.636,1.664,0.831l-0.634,1.095l-0.907-0.377l-0.025,0.042
		c0.32,0.665,0.367,1.671-0.187,2.627c-0.782,1.358-2.141,1.499-3.108,0.938c-1.621-0.936-1.676-2.889-0.166-5.472l-0.139-0.08
		c-0.556-0.32-1.654-0.752-2.433,0.628c-0.369,0.637-0.563,1.393-0.52,2.048l-0.979-0.195c-0.024-0.754,0.211-1.708,0.697-2.553
		c1.191-2.064,2.881-1.755,4.225-0.979L367.18,161.893z M364.678,162.037c-0.798,1.314-1.435,2.96-0.132,3.712
		c0.806,0.464,1.47,0.146,1.82-0.464c0.512-0.887,0.283-1.775-0.172-2.297c-0.102-0.114-0.23-0.208-0.354-0.28L364.678,162.037z"/>
	<path d="M372.439,155.951c-0.029,0.407-0.203,1.25-0.726,2.15c-1.168,2.023-3.299,2.547-5.362,1.355s-2.761-3.478-1.494-5.667
		c0.416-0.721,0.963-1.254,1.336-1.482l0.77,0.813c-0.319,0.203-0.75,0.564-1.135,1.229c-0.889,1.538-0.219,3.033,1.182,3.841
		c1.554,0.896,3.085,0.45,3.853-0.88c0.4-0.693,0.498-1.246,0.548-1.681L372.439,155.951z"/>
	<path d="M363.662,148.98l0.701-1.219l4.188,2.416l0.017-0.028c-0.232-0.394-0.377-0.883-0.354-1.369
		c-0.016-0.488,0.107-0.99,0.373-1.447c0.521-0.9,1.904-2.021,4.222-0.686l3.989,2.304l-0.703,1.219l-3.854-2.224
		c-1.096-0.632-2.229-0.75-2.893,0.4c-0.455,0.79-0.255,1.719,0.274,2.339c0.127,0.165,0.299,0.283,0.533,0.419l4.047,2.336
		l-0.703,1.22L363.662,148.98z"/>
	<path d="M376.609,146.424c0.438-0.246,1.059-0.74,1.408-1.349c0.504-0.873,0.313-1.537-0.254-1.865
		c-0.582-0.336-1.103-0.173-1.945,0.521c-1.146,0.963-2.127,1.155-2.93,0.691c-1.082-0.624-1.455-2.023-0.634-3.45
		c0.394-0.679,0.916-1.171,1.361-1.395l0.701,0.795c-0.303,0.175-0.816,0.524-1.18,1.148c-0.416,0.72-0.224,1.348,0.274,1.636
		c0.566,0.328,1.041,0.084,1.877-0.597c1.094-0.902,2.027-1.176,3.039-0.592c1.189,0.688,1.486,2.096,0.584,3.662
		c-0.425,0.734-1.012,1.301-1.561,1.612L376.609,146.424z"/>
	<path d="M378.361,138.974c1.666,0.924,2.945,0.277,3.647-0.942c0.505-0.873,0.664-1.501,0.74-2.049l0.984,0.274
		c-0.055,0.542-0.25,1.426-0.865,2.493c-1.186,2.05-3.274,2.505-5.283,1.346c-2.037-1.176-2.938-3.302-1.809-5.255
		c1.266-2.189,3.52-1.645,4.75-0.933c0.25,0.144,0.438,0.27,0.561,0.377L378.361,138.974z M379.545,134.909
		c-0.754-0.454-2.166-0.825-2.948,0.533c-0.722,1.247,0.11,2.43,0.901,3.015L379.545,134.909z"/>
	<path d="M386.367,136.244c-0.813-1.762-2.158-3.556-4.652-4.996c-2.493-1.44-4.688-1.708-6.639-1.524l0.543-0.942
		c1.641-0.217,3.973-0.127,6.688,1.44c2.707,1.582,3.932,3.526,4.604,5.079L386.367,136.244z"/>
</g>
<g>
	<path d="M192.177,169.28c0.282-0.557,0.84-1.364,1.46-2.097c0.898-1.063,1.66-1.591,2.5-1.741c0.679-0.159,1.396-0.014,2.042,0.534
		c0.806,0.682,1.047,1.809,0.629,2.922l0.037,0.031c0.845-0.626,2.267-0.995,3.487,0.039c0.708,0.6,1.008,1.335,1.049,2.104
		c0.05,1.006-0.491,2.141-1.629,3.485c-0.62,0.732-1.146,1.253-1.492,1.566L192.177,169.28z M196.447,171.071l0.816-0.965
		c0.94-1.111,0.899-2.277,0.106-2.949c-0.953-0.806-1.954-0.417-2.863,0.658c-0.414,0.488-0.613,0.8-0.723,1.002L196.447,171.071z
		 M200.379,174.399c0.224-0.189,0.481-0.472,0.804-0.85c0.931-1.099,1.386-2.454,0.188-3.467c-1.111-0.941-2.404-0.379-3.389,0.781
		l-0.744,0.879L200.379,174.399z"/>
	<path d="M208.133,164.259c0.502,0.446,1.015,0.858,1.462,1.149l-0.841,0.945l-0.813-0.553l-0.03,0.036
		c0.178,0.715,0.021,1.71-0.714,2.535c-1.042,1.172-2.396,1.036-3.234,0.292c-1.398-1.244-1.061-3.167,0.939-5.393l-0.12-0.106
		c-0.479-0.425-1.468-1.07-2.509,0.125c-0.487,0.55-0.833,1.25-0.919,1.901l-0.918-0.388c0.126-0.744,0.55-1.63,1.197-2.36
		c1.584-1.782,3.176-1.138,4.334-0.107L208.133,164.259z M205.652,163.895c-1.044,1.126-2,2.611-0.876,3.61
		c0.694,0.617,1.409,0.439,1.876-0.087c0.682-0.765,0.64-1.681,0.296-2.284c-0.074-0.131-0.185-0.25-0.292-0.345L205.652,163.895z"
		/>
	<path d="M202.726,156.075l0.961-1.028l3.529,3.299l0.021-0.023c-0.14-0.438-0.168-0.945-0.035-1.414
		c0.097-0.479,0.331-0.939,0.689-1.325c0.71-0.76,2.313-1.539,4.268,0.286l3.365,3.146l-0.961,1.029l-3.25-3.037
		c-0.923-0.863-2-1.234-2.905-0.264c-0.623,0.666-0.638,1.618-0.262,2.341c0.085,0.189,0.229,0.343,0.426,0.529l3.412,3.19
		l-0.961,1.029L202.726,156.075z"/>
	<path d="M213.076,153.414c-0.581-0.573-1.049-1.011-1.537-1.427l0.876-0.888l0.956,0.831l0.021-0.023
		c-0.243-0.779-0.125-1.922,0.772-2.833c0.753-0.763,2.377-1.498,4.269,0.368l3.292,3.248l-0.989,1.002l-3.177-3.136
		c-0.889-0.876-1.967-1.288-2.896-0.343c-0.643,0.649-0.682,1.623-0.303,2.355c0.08,0.169,0.24,0.372,0.398,0.529l3.326,3.281
		l-0.988,1.002L213.076,153.414z"/>
	<path d="M222.884,135.879l6.401,6.829c0.471,0.502,1.02,1.063,1.415,1.416l-0.924,0.864l-0.966-0.937l-0.021,0.021
		c0.273,0.926,0.047,2.039-0.875,2.904c-1.366,1.28-3.513,1.12-5.12-0.596c-1.783-1.88-1.677-4.129-0.313-5.41
		c0.875-0.821,1.844-0.959,2.503-0.746l0.022-0.021l-3.15-3.362L222.884,135.879z M226.485,141.78
		c-0.131-0.14-0.296-0.292-0.462-0.4c-0.753-0.5-1.815-0.511-2.587,0.211c-1.063,0.996-0.815,2.52,0.342,3.758
		c1.083,1.155,2.542,1.565,3.641,0.537c0.688-0.646,0.881-1.704,0.355-2.638c-0.098-0.173-0.216-0.324-0.369-0.487L226.485,141.78z"
		/>
	<path d="M230.552,139.369c1.286,1.404,2.704,1.195,3.758,0.261c0.754-0.668,1.104-1.214,1.352-1.709l0.851,0.573
		c-0.224,0.497-0.689,1.273-1.611,2.09c-1.771,1.571-3.898,1.34-5.438-0.396c-1.562-1.76-1.738-4.06-0.05-5.557
		c1.893-1.677,3.856-0.447,4.802,0.618c0.189,0.215,0.328,0.394,0.41,0.535L230.552,139.369z M232.961,135.887
		c-0.571-0.669-1.793-1.468-2.966-0.428c-1.078,0.955-0.663,2.34-0.101,3.145L232.961,135.887z"/>
	<path d="M237.303,136.381c0.495-0.083,1.243-0.338,1.781-0.792c0.771-0.65,0.815-1.338,0.395-1.84
		c-0.435-0.514-0.978-0.537-2.007-0.17c-1.406,0.517-2.393,0.365-2.991-0.344c-0.806-0.954-0.684-2.397,0.577-3.46
		c0.599-0.505,1.259-0.79,1.752-0.851l0.395,0.987c-0.348,0.062-0.949,0.215-1.5,0.679c-0.638,0.537-0.668,1.192-0.299,1.633
		c0.425,0.501,0.951,0.433,1.971,0.076c1.334-0.478,2.307-0.418,3.061,0.475c0.887,1.052,0.688,2.477-0.692,3.643
		c-0.647,0.547-1.394,0.881-2.016,0.988L237.303,136.381z"/>
	<path d="M240.334,121.761l2.767,3.564l4.121-3.197l-2.767-3.565l1.11-0.863l6.61,8.52l-1.111,0.863l-3.101-3.995l-4.121,3.198
		l3.101,3.994l-1.11,0.863l-6.61-8.52L240.334,121.761z"/>
	<path d="M249.173,117.063c-0.425,0.313-0.955,0.187-1.249-0.213c-0.294-0.399-0.234-0.939,0.203-1.262
		c0.438-0.322,0.958-0.209,1.252,0.19s0.258,0.943-0.192,1.275L249.173,117.063z M254.068,124.844l-4.592-6.236l1.134-0.835
		l4.594,6.236L254.068,124.844z"/>
	<path d="M253.816,117.97c-0.463-0.672-0.854-1.181-1.243-1.689l1.016-0.7l0.762,0.991l0.04-0.027
		c-0.063-0.851,0.14-1.826,1.207-2.562c0.855-0.59,1.878-0.518,2.672,0.042l0.025-0.018c-0.059-0.505,0.023-0.95,0.15-1.33
		c0.184-0.553,0.48-0.993,1.089-1.411c0.854-0.59,2.487-0.9,4.015,1.313l2.589,3.753l-1.134,0.781l-2.488-3.609
		c-0.854-1.238-1.813-1.645-2.736-1.009c-0.672,0.463-0.836,1.296-0.666,1.994c0.065,0.208,0.173,0.446,0.31,0.643l2.726,3.952
		l-1.133,0.781l-2.635-3.82c-0.708-1.027-1.655-1.443-2.537-0.834c-0.712,0.491-0.853,1.442-0.638,2.149
		c0.053,0.216,0.162,0.432,0.298,0.63l2.65,3.846l-1.133,0.781L253.816,117.97z"/>
	<path d="M264.965,110.354c-0.429-0.694-0.793-1.221-1.156-1.749l1.048-0.648l0.711,1.028l0.041-0.025
		c-0.021-0.853,0.229-1.817,1.333-2.499c0.887-0.547,1.9-0.424,2.667,0.175l0.026-0.017c-0.03-0.507,0.072-0.948,0.219-1.32
		c0.21-0.543,0.529-0.968,1.155-1.355c0.886-0.547,2.531-0.775,3.945,1.511l2.396,3.878l-1.17,0.724l-2.308-3.729
		c-0.791-1.279-1.729-1.733-2.684-1.144c-0.692,0.429-0.897,1.252-0.765,1.958c0.056,0.211,0.147,0.454,0.273,0.658l2.524,4.082
		l-1.17,0.724l-2.44-3.946c-0.654-1.062-1.581-1.523-2.492-0.959c-0.734,0.454-0.923,1.398-0.742,2.115
		c0.041,0.219,0.141,0.44,0.268,0.644l2.458,3.973l-1.17,0.724L264.965,110.354z"/>
	<path d="M278.18,104.712c0.961,1.644,2.391,1.739,3.618,1.049c0.877-0.494,1.336-0.954,1.681-1.386l0.709,0.739
		c-0.32,0.438-0.939,1.099-2.017,1.703c-2.063,1.161-4.096,0.486-5.231-1.536c-1.15-2.05-0.842-4.336,1.125-5.442
		c2.203-1.239,3.865,0.377,4.563,1.619c0.142,0.251,0.238,0.454,0.287,0.609L278.18,104.712z M281.27,101.818
		c-0.418-0.775-1.441-1.813-2.81-1.045c-1.256,0.706-1.145,2.147-0.762,3.053L281.27,101.818z"/>
	<path d="M280.918,94.37l1.244-0.661l5.332,10.031l-1.244,0.661L280.918,94.37z"/>
	<path d="M288.727,101.479c0.502,0.034,1.289-0.041,1.916-0.358c0.899-0.455,1.104-1.114,0.813-1.699
		c-0.305-0.6-0.826-0.748-1.914-0.629c-1.485,0.178-2.412-0.198-2.83-1.026c-0.563-1.114-0.108-2.49,1.359-3.232
		c0.699-0.354,1.408-0.478,1.902-0.422l0.153,1.051c-0.354-0.02-0.977-0.011-1.617,0.314c-0.741,0.375-0.926,1.005-0.665,1.52
		c0.295,0.585,0.825,0.641,1.897,0.529c1.406-0.156,2.34,0.126,2.865,1.169c0.619,1.228,0.098,2.568-1.521,3.383
		c-0.756,0.382-1.558,0.536-2.188,0.495L288.727,101.479z"/>
	<path d="M294.666,95.456l0.027-0.014c0.061-0.328,0.143-0.755,0.234-1.082l0.938-3.39l1.521-0.712l-1.359,4.152l5.021,2.684
		l-1.55,0.726l-3.985-2.25l-0.308,1.044l1.232,2.637l-1.271,0.597L290.35,89.56l1.272-0.597L294.666,95.456z"/>
	<path d="M300.055,87.828c-0.429,0.182-0.865-0.032-1.035-0.43c-0.168-0.397,0.012-0.874,0.424-1.049
		c0.396-0.169,0.846,0.023,1.021,0.436c0.168,0.398,0.033,0.855-0.396,1.037L300.055,87.828z M304.891,95.647
		c-1.916,0.814-4.019,0.039-4.976-2.214c-1.016-2.386-0.033-4.454,1.926-5.287c2.048-0.87,4.063,0.029,4.98,2.194
		c1.129,2.65-0.227,4.582-1.92,5.301L304.891,95.647z M304.521,94.657c1.235-0.526,1.67-2.083,0.979-3.703
		c-0.514-1.208-1.76-2.468-3.293-1.817c-1.518,0.645-1.578,2.34-1.002,3.695c0.664,1.561,2.047,2.363,3.299,1.831L304.521,94.657z
		 M302.734,86.689c-0.412,0.175-0.853-0.039-1.021-0.436c-0.17-0.397-0.004-0.868,0.423-1.049c0.397-0.169,0.846,0.024,1.021,0.436
		c0.168,0.397,0.031,0.855-0.41,1.043L302.734,86.689z"/>
	<path d="M308.076,88.388c-0.33-0.851-0.629-1.576-0.934-2.23l1.147-0.445l0.605,1.395l0.045-0.018
		c-0.047-1.097,0.522-2.021,1.402-2.361c0.135-0.052,0.245-0.077,0.377-0.094l0.473,1.224c-0.152,0.042-0.295,0.08-0.475,0.149
		c-0.925,0.358-1.312,1.313-1.113,2.353c0.045,0.205,0.11,0.42,0.197,0.644l1.489,3.85l-1.313,0.508L308.076,88.388z"/>
	<path d="M313.162,86.549c-0.326-0.937-0.604-1.688-0.893-2.367l1.194-0.415l0.511,1.229l0.03-0.01
		c0.214-1.091,0.912-1.909,2.093-2.318c1.782-0.619,3.633,0.416,4.403,2.637c0.912,2.63-0.254,4.492-1.961,5.084
		c-0.981,0.341-1.961,0.207-2.651-0.367l-0.029,0.01l1.381,3.975l-1.33,0.462L313.162,86.549z M315.168,88.038
		c0.063,0.181,0.146,0.373,0.25,0.523c0.547,0.843,1.584,1.195,2.521,0.87c1.406-0.488,1.824-1.92,1.242-3.598
		c-0.511-1.466-1.701-2.458-3.107-1.971c-0.904,0.315-1.547,1.249-1.455,2.336c0.029,0.192,0.055,0.404,0.111,0.57L315.168,88.038z"
		/>
	<path d="M323.156,84.86c0.576,1.815,1.951,2.223,3.301,1.82c0.967-0.289,1.515-0.636,1.943-0.981l0.529,0.877
		c-0.412,0.356-1.162,0.864-2.343,1.217c-2.271,0.677-4.104-0.428-4.768-2.651c-0.674-2.253,0.137-4.415,2.296-5.061
		c2.425-0.723,3.688,1.22,4.097,2.584c0.082,0.276,0.131,0.495,0.146,0.658L323.156,84.86z M326.809,82.718
		c-0.236-0.848-1.009-2.087-2.511-1.639c-1.379,0.412-1.586,1.843-1.414,2.811L326.809,82.718z"/>
	<path d="M329.756,81.192c-0.229-0.882-0.44-1.637-0.67-2.322l1.191-0.31l0.443,1.455l0.047-0.012
		c0.08-1.095,0.75-1.947,1.664-2.185c0.141-0.036,0.252-0.049,0.385-0.05l0.33,1.27c-0.16,0.025-0.304,0.045-0.486,0.094
		c-0.963,0.25-1.453,1.154-1.379,2.209c0.021,0.209,0.063,0.43,0.123,0.663L332.443,86l-1.361,0.354L329.756,81.192z"/>
	<path d="M335.611,83.728c0.479,0.155,1.262,0.275,1.947,0.12c0.981-0.221,1.342-0.81,1.198-1.45
		c-0.147-0.656-0.618-0.927-1.702-1.077c-1.484-0.19-2.291-0.78-2.494-1.686c-0.271-1.218,0.502-2.441,2.108-2.803
		c0.765-0.172,1.479-0.12,1.947,0.054l-0.107,1.057c-0.334-0.105-0.94-0.248-1.643-0.09c-0.813,0.183-1.146,0.749-1.02,1.311
		c0.145,0.64,0.646,0.823,1.711,0.977c1.403,0.192,2.237,0.694,2.496,1.833c0.301,1.342-0.535,2.514-2.3,2.911
		c-0.825,0.186-1.643,0.139-2.241-0.054L335.611,83.728z"/>
</g>
<path d="M402.324,435.146c-0.938,0-1.701-0.689-1.701-1.541c0-0.854,0.763-1.541,1.701-1.541l1.096-0.848
	c0.315-0.291,0.604-0.632,0.882-1.033c1.681-2.474,1.394-5.279,0.386-7.08c-0.962-1.754-2.091-2.279-2.735-2.662
	c-1.104-0.65-2.688-1.059-4.395-1.059c-1.703,0-3.289,0.405-4.392,1.059c-0.649,0.383-1.776,0.908-2.735,2.662
	c-1.009,1.801-1.297,4.606,0.384,7.08c0.271,0.396,0.558,0.729,0.866,1.021l1.028,0.861c0.938,0,1.699,0.689,1.699,1.541
	s-0.763,1.541-1.699,1.541l-0.006,0.002c-0.938,0-1.699-0.689-1.699-1.541c0-0.854,0.763-1.541,1.699-1.541l-0.955-0.848
	c-1.035,0.399-1.763,1.367-1.763,2.496c0,1.487,1.269,2.694,2.83,2.694c1.563,0,2.828-1.207,2.828-2.694
	c0-0.896-0.457-1.688-1.162-2.181c-0.475-0.328-1.086-1.09-1.491-2.024c-0.791-1.822-1.056-5.978,1.079-8.109
	c0.983-0.984,2.257-1.248,3.479-1.248c1.223,0,2.496,0.264,3.479,1.248c2.14,2.135,1.873,6.287,1.082,8.109
	c-0.396,0.912-0.959,1.698-1.429,2.022c-0.702,0.488-1.161,1.283-1.161,2.181c0,1.487,1.269,2.694,2.827,2.694
	c1.563,0,2.83-1.207,2.83-2.694c0-1.13-0.728-2.097-1.761-2.498l-1.097,0.848c0.938,0,1.699,0.688,1.699,1.541
	C404.023,434.457,403.261,435.146,402.324,435.146z"/>
<path d="M113.455,391.693c0.938,0,1.698,0.688,1.698,1.541c0,0.853-0.762,1.541-1.698,1.541l-1.098,0.846
	c-0.314,0.291-0.604,0.632-0.882,1.033c-1.68,2.474-1.393,5.279-0.385,7.082c0.961,1.752,2.09,2.277,2.736,2.662
	c1.104,0.646,2.688,1.057,4.393,1.057c1.703,0,3.288-0.407,4.392-1.057c0.648-0.385,1.776-0.91,2.736-2.662
	c1.008-1.803,1.296-4.608-0.385-7.082c-0.271-0.396-0.557-0.729-0.866-1.021l-1.028-0.863c-0.938,0-1.698-0.688-1.698-1.54
	c0-0.851,0.762-1.54,1.698-1.54h0.008c0.938,0,1.697,0.688,1.697,1.54c0,0.851-0.762,1.54-1.697,1.54l0.953,0.848
	c1.034-0.399,1.763-1.367,1.763-2.498c0-1.487-1.27-2.694-2.83-2.694c-1.563,0-2.828,1.207-2.828,2.694
	c0,0.896,0.458,1.689,1.162,2.181c0.474,0.328,1.086,1.09,1.492,2.026c0.792,1.822,1.057,5.978-1.08,8.109
	c-0.983,0.984-2.256,1.248-3.479,1.248s-2.496-0.264-3.479-1.248c-2.14-2.135-1.873-6.287-1.082-8.109
	c0.396-0.914,0.96-1.698,1.429-2.022c0.703-0.489,1.161-1.282,1.161-2.181c0-1.487-1.269-2.694-2.827-2.694
	c-1.563,0-2.83,1.207-2.83,2.694c0,1.13,0.729,2.097,1.761,2.498l1.098-0.846c-0.938,0-1.699-0.688-1.699-1.541
	C111.757,392.383,112.516,391.693,113.455,391.693z"/>
<g>
	<path d="M321.156,241.88c0.873,0.504,1.75,0.955,2.496,1.247l-0.945,1.642l-1.365-0.565l-0.034,0.063
		c0.479,0.996,0.549,2.506-0.279,3.94c-1.176,2.037-3.211,2.248-4.666,1.408c-2.432-1.404-2.514-4.333-0.248-8.208l-0.209-0.12
		c-0.828-0.48-2.479-1.127-3.646,0.942c-0.554,0.956-0.849,2.089-0.777,3.072l-1.465-0.292c-0.041-1.131,0.313-2.562,1.047-3.83
		c1.787-3.097,4.317-2.633,6.334-1.469L321.156,241.88z M317.402,242.096c-1.191,1.971-2.146,4.441-0.193,5.569
		c1.207,0.696,2.203,0.218,2.729-0.696c0.77-1.33,0.432-2.663-0.256-3.445c-0.15-0.17-0.347-0.311-0.533-0.419L317.402,242.096z"/>
</g>
<g>
	<path d="M263.628,491.643v6.771h7.825v-6.771h2.11v16.181h-2.11v-7.584h-7.825v7.584h-2.111v-16.181H263.628z"/>
	<path d="M277.188,491.643h2.088v7.804h0.072c0.433-0.624,0.863-1.199,1.271-1.729l4.941-6.072h2.593l-5.854,6.865l6.313,9.313
		h-2.473l-5.305-7.945l-1.563,1.777v6.168h-2.088L277.188,491.643L277.188,491.643z"/>
</g>
<g>
	<path d="M419.477,80.746l-1.682,5.088h-2.159l5.497-16.177h2.52l5.521,16.177h-2.232l-1.728-5.088H419.477z M424.78,79.113
		l-1.605-4.656c-0.336-1.056-0.576-2.016-0.815-2.952h-0.072c-0.216,0.936-0.479,1.944-0.792,2.928l-1.582,4.68H424.78z"/>
</g>
<path fill="none" stroke="#000000" stroke-width="2.126" stroke-linecap="round" stroke-miterlimit="10" stroke-dasharray="4.252" d="
	M172.381,406.492c-2.104,9.054,0,26.677,4.527,32.174"/>
<g>
	<polyline fill="none" stroke="#000000" stroke-width="0.9921" stroke-miterlimit="10" stroke-dasharray="9.9213" points="
		44.394,394.577 162.704,300.211 520.449,334.014 	"/>
</g>
<circle stroke="#000000" stroke-width="0.2835" stroke-miterlimit="10" stroke-dasharray="5.6693" cx="137" cy="402.919" r="3.543"/>
<circle stroke="#000000" stroke-width="0.2835" stroke-miterlimit="10" stroke-dasharray="5.6693" cx="199.667" cy="476.667" r="3.543"/>
<circle stroke="#000000" stroke-width="0.2835" stroke-miterlimit="10" stroke-dasharray="5.6693" cx="415.667" cy="93.333" r="3.543"/>
<circle stroke="#000000" stroke-width="0.2835" stroke-miterlimit="10" stroke-dasharray="5.6693" cx="307" cy="285.333" r="3.543"/>
<circle stroke="#000000" stroke-width="0.2835" stroke-miterlimit="10" stroke-dasharray="5.6693" cx="374.871" cy="425.434" r="3.543"/>
<circle fill="#66FF66" stroke="#000000" stroke-width="0.2835" stroke-miterlimit="10" cx="382.198" cy="458.283" r="3.543"/>
<line fill="none" stroke="#000000" stroke-width="1.4173" stroke-miterlimit="10" x1="227.196" y1="411.455" x2="140.543" y2="402.919"/>
<line fill="none" stroke="#000000" stroke-width="1.4173" stroke-miterlimit="10" x1="244.363" y1="413.01" x2="374.333" y2="425.434"/>
<path fill="none" stroke="#000000" stroke-width="2.126" stroke-miterlimit="10" d="M326.205,426.166
	c-6.524,4.153-16.021,6.922-23.532,8.504"/>
<path fill="none" stroke="#000000" stroke-linecap="round" stroke-miterlimit="10" d="M177.25,439.25c3,3.5,5,7.25,13.5,13"/>
<polygon points="193.99,447.35 187.529,457.679 209.891,461.315 "/>
<g>
	<g>
		
			<line fill="none" stroke="#000000" stroke-width="2.126" stroke-miterlimit="10" x1="250.586" y1="445.436" x2="260.212" y2="466.879"/>
		<g>
			<polygon points="253.735,465.723 266.997,482.002 263.652,461.271 			"/>
		</g>
	</g>
</g>
<line fill="none" stroke="#000000" stroke-width="2.126" stroke-miterlimit="10" stroke-dasharray="4.252" x1="237.44" y1="416.367" x2="250.955" y2="446.087"/>
<g>
	<path d="M226.885,463.166l4.016-0.461c0.218,0.699,0.377,1.404,0.48,2.121c0.146,1.049,0.228,2.283,0.244,3.705
		c0.004,0.715-0.042,2.221-0.139,4.52c1.258-1.143,2.009-1.852,2.256-2.131c1.354-1.508,2.137-2.393,2.346-2.656
		c0.347-0.451,0.597-0.854,0.749-1.205c0.126-0.262,0.201-0.516,0.226-0.762c0.022-0.234-0.162-0.527-0.554-0.877
		s-0.569-0.715-0.532-1.096c0.027-0.289,0.169-0.537,0.422-0.742c0.253-0.203,0.539-0.291,0.855-0.26
		c0.383,0.037,0.702,0.227,0.962,0.563c0.261,0.342,0.367,0.744,0.322,1.207c-0.045,0.461-0.161,0.9-0.349,1.313
		c-0.303,0.666-0.822,1.465-1.563,2.395c-0.741,0.935-1.908,2.162-3.504,3.691c-0.202,0.188-1.313,1.146-3.328,2.863l-0.503-0.052
		c0.34-5.764,0.232-9.391-0.316-10.881c-0.183-0.483-0.536-0.754-1.063-0.805c-0.229-0.021-0.556-0.014-0.979,0.027L226.885,463.166
		z"/>
</g>
<g>
	<path d="M268.661,468.164l2.603-12.445h1.875l-0.527,2.543c0.643-0.961,1.27-1.672,1.883-2.133
		c0.611-0.461,1.238-0.691,1.881-0.691c0.422,0,0.939,0.152,1.56,0.457l-0.867,1.972c-0.367-0.269-0.771-0.398-1.207-0.398
		c-0.74,0-1.504,0.414-2.285,1.242c-0.779,0.828-1.395,2.316-1.84,4.465l-1.055,4.992L268.661,468.164L268.661,468.164z"/>
</g>
<circle fill="#0000FF" cx="266.5" cy="482" r="5.669"/>
<g>
	<g>
		<path fill="none" stroke="#000000" stroke-width="1.9843" stroke-miterlimit="10" d="M212.237,453.645
			c8.716,4.022,20.896,4.573,30.205,3.923"/>
		<g>
			<polygon points="240.265,461.888 254.757,455.566 239.044,453.794 			"/>
		</g>
	</g>
</g>
<g>
	<path d="M512.912,399.88l2.604-12.445h2.121l-2.604,12.445H512.912z M516.009,385.103l0.504-2.399h2.106l-0.504,2.399H516.009z"/>
</g>
<g>
	<g>
		<path d="M268.911,343.548l-1.363-0.562l-0.033,0.063c0.482,1.009,0.594,2.496-0.208,3.945c-1.141,2.058-3.17,2.307-4.641,1.492
			c-2.457-1.359-2.593-4.288-0.396-8.203l-0.21-0.116c-0.84-0.465-2.479-1.071-3.63,1.009c-0.523,0.944-0.776,2.094-0.71,3.063
			l-1.45-0.254c-0.081-1.144,0.235-2.56,0.944-3.839c1.722-3.107,4.261-2.69,6.298-1.563l3.801,2.104
			c0.882,0.486,1.768,0.923,2.528,1.181L268.911,343.548z M263.573,340.95c-1.157,1.993-2.067,4.479-0.095,5.572
			c1.196,0.66,2.206,0.178,2.729-0.769c0.731-1.323,0.355-2.629-0.343-3.396c-0.153-0.168-0.34-0.326-0.528-0.433L263.573,340.95z"
			/>
	</g>
	<g>
		<path d="M266.853,336.135c-0.775-0.43-1.032-1.257-0.625-1.992c0.405-0.732,1.23-0.937,2.008-0.506
			c0.757,0.418,1.057,1.215,0.626,1.992C268.455,336.363,267.609,336.554,266.853,336.135z"/>
	</g>
	<g>
		<path d="M271.074,328.436c2.521,1.343,4.437,0.314,5.458-1.531c0.731-1.323,0.941-2.249,1.031-3.105l1.498,0.418
			c-0.065,0.813-0.348,2.113-1.241,3.729c-1.73,3.129-4.824,3.856-7.891,2.162c-3.066-1.697-4.48-4.841-2.844-7.802
			c1.836-3.316,5.244-2.586,7.113-1.551c0.377,0.209,0.647,0.414,0.824,0.54L271.074,328.436z M272.751,322.285
			c-1.165-0.672-3.271-1.18-4.421,0.898c-1.035,1.869,0.232,3.643,1.435,4.497L272.751,322.285z"/>
	</g>
</g>
<path fill="#F9D600" d="M243.844,408.262c1.152,1.825,1.83,3.72,1.462,5.905c-0.329,1.983-3.714,2.4-5.437,2.565
	c-4.164,0.408-9.886,0.84-13.55-1.602c-1.479-0.992-0.439-4.013,0.189-5.25c1.04-2.037,2.619-3.854,4.738-4.826
	C235.866,402.943,240.73,404.345,243.844,408.262z"/>
<path d="M506.728,504.962c0.218-2.646,0.15-7.394-0.486-9.807c-0.309-1.175-0.49-1.627-1.06-2.438
	c-0.698-0.992-2.181-2.041-3.233-2.041c-1.374,0-2.023,0.44-2.855,1.274l-0.318-1.481c0.459-0.364,1.359-0.865,2.312-1.03
	c0.881-0.157,1.805-0.012,2.468,0.262c0.867,0.482,1.289,0.595,2.229,1.535c0.738,0.74,1.427,2.047,1.677,3.314
	c0.021,0.099,0.04,0.197,0.059,0.301c0.017-0.104,0.035-0.202,0.06-0.301c0.247-1.269,0.936-2.574,1.676-3.314
	c0.941-0.94,1.36-1.053,2.23-1.535c0.659-0.272,1.582-0.419,2.463-0.262c0.952,0.165,1.854,0.665,2.313,1.03l-0.314,1.481
	c-0.837-0.834-1.482-1.274-2.859-1.274c-1.049,0-2.534,1.049-3.232,2.041c-0.569,0.813-0.748,1.265-1.06,2.438
	c-0.635,2.413-0.702,7.16-0.487,9.807H506.728z"/>
<g>
	<path d="M499.641,433.719c0.387-0.521,1.238-1.338,2.237-2.129c1.449-1.146,2.792-1.852,4.402-2.317
		c1.293-0.404,2.751-0.605,4.196-0.488c1.801,0.146,2.624,0.853,2.138,1.831l0.082,0.007c1.479-0.811,4.171-1.683,6.901-1.462
		c1.582,0.129,2.4,0.529,2.716,1.064c0.408,0.701-0.313,1.747-2.146,3.197c-0.999,0.791-1.872,1.389-2.465,1.762L499.641,433.719z
		 M508.622,433.183l1.315-1.041c1.516-1.2,1.077-2.02-0.696-2.164c-2.129-0.172-3.984,0.534-5.45,1.694
		c-0.666,0.527-0.967,0.837-1.116,1.028L508.622,433.183z M517.407,433.896c0.382-0.23,0.809-0.545,1.325-0.954
		c1.499-1.187,1.98-2.354-0.693-2.57c-2.482-0.201-4.863,0.754-6.445,2.007l-1.198,0.948L517.407,433.896z"/>
	<path d="M521.438,426.869c3.282,0.236,5.867-0.644,7.332-1.804c1.05-0.83,1.4-1.368,1.579-1.819l1.958-0.073
		c-0.135,0.438-0.571,1.188-1.854,2.203c-2.465,1.951-6.663,2.919-10.622,2.598c-4.01-0.324-5.699-1.727-3.351-3.586
		c2.631-2.082,7.106-2.315,9.536-2.118c0.49,0.04,0.856,0.084,1.094,0.133L521.438,426.869z M524,423.342
		c-1.48-0.135-4.283-0.014-5.915,1.278c-1.499,1.187,0.106,1.869,1.652,2.097L524,423.342z"/>
	<path d="M532.802,422.064l-4.127-3.518c-0.373-0.35-0.683-0.651-1.007-1.012l-0.055-0.005l-4.38,3.467l-1.912-0.154l6.145-4.864
		l1.5,0.122l4.082,3.483c0.375,0.322,0.727,0.641,1.015,0.984l0.055,0.004l4.713-3.73l1.91,0.155l-6.546,5.181L532.802,422.064z"/>
	<path d="M545.383,410.18c1.365,0.11,2.581,0.195,3.667,0.239l-1.298,1.028l-2.24-0.108l-0.032,0.025
		c0.697,0.377,1.222,1.176-0.21,2.309c-1.266,1.002-3.955,2.106-8.564,1.732l-7.723-0.627l1.466-1.16l7.287,0.592
		c2.508,0.203,4.711-0.039,6.026-1.08c0.983-0.778,0.545-1.41-0.278-1.709c-0.243-0.092-0.631-0.168-1.096-0.205l-8.076-0.655
		l1.466-1.16L545.383,410.18z"/>
	<path d="M556.372,402.933c3.057,0.248,4.502,0.699,4.908,1.4c0.374,0.729-0.35,1.657-1.365,2.462
		c-0.967,0.765-2.413,1.577-3.771,2.034l-1.489-0.441c1.105-0.375,2.428-0.994,3.428-1.785c1.499-1.187,1.316-2.16-2.039-2.433
		l-1.445-0.117l-0.033,0.026c0.793,0.442,0.893,1.221-0.355,2.209c-1.999,1.582-6.214,2.49-9.897,2.191
		c-4.475-0.363-5.205-1.977-3.34-3.453c1.399-1.107,3.322-1.605,4.782-1.807l0.033-0.026l-1.916-0.2l1.299-1.027
		c0.878,0.115,1.927,0.215,3.536,0.345L556.372,402.933z M548.821,403.599c-0.381-0.03-0.753-0.047-1.146-0.02
		c-1.687,0.096-3.532,0.557-4.614,1.413c-1.399,1.107-0.461,2.056,2.623,2.306c2.566,0.208,5.564-0.262,7.13-1.501
		c0.916-0.725,0.803-1.446-0.452-1.809c-0.298-0.098-0.728-0.161-1.165-0.196L548.821,403.599z"/>
	<path d="M558.097,401.14c0.885-0.321,2.142-0.888,2.874-1.467c1.049-0.831,0.705-1.295-0.414-1.386
		c-1.146-0.093-2.189,0.186-3.909,0.976c-2.341,1.09-4.308,1.526-5.89,1.397c-2.127-0.172-2.809-1.157-1.094-2.515
		c0.816-0.646,1.888-1.185,2.785-1.489l1.37,0.415c-0.616,0.227-1.666,0.65-2.415,1.244c-0.865,0.685-0.513,1.121,0.468,1.201
		c1.121,0.09,2.079-0.239,3.784-1.017c2.226-1.025,4.104-1.513,6.097-1.352c2.346,0.19,2.867,1.206,0.985,2.696
		c-0.883,0.699-2.08,1.314-3.191,1.718L558.097,401.14z"/>
	<path d="M561.957,394.796c3.282,0.237,5.866-0.643,7.332-1.803c1.049-0.83,1.399-1.369,1.579-1.819l1.958-0.074
		c-0.136,0.439-0.571,1.188-1.854,2.204c-2.465,1.951-6.664,2.919-10.623,2.598c-4.01-0.324-5.698-1.727-3.351-3.586
		c2.631-2.082,7.107-2.315,9.537-2.119c0.49,0.04,0.856,0.085,1.094,0.134L561.957,394.796z M564.518,391.27
		c-1.481-0.136-4.283-0.014-5.916,1.278c-1.498,1.187,0.106,1.869,1.652,2.096L564.518,391.27z"/>
	<path d="M556.29,387.782l1.466-1.16l8.268,0.671l0.033-0.026c-0.956-0.528-0.953-1.342,0.346-2.37
		c1.998-1.581,6.128-2.468,10.11-2.145c4.748,0.385,5.261,2.025,3.463,3.449c-1.166,0.923-2.818,1.588-5.181,1.935l-0.033,0.026
		l2.101,0.242l-1.266,1.002c-0.853-0.112-2.17-0.233-3.346-0.329L556.29,387.782z M571.836,387.765
		c0.299,0.024,0.616,0.035,0.921,0.031c1.947-0.09,3.96-0.682,5.009-1.513c1.549-1.226,0.403-2.104-2.626-2.349
		c-2.674-0.217-5.772,0.258-7.338,1.498c-0.999,0.79-0.785,1.621,0.732,1.992c0.251,0.063,0.544,0.116,0.929,0.147L571.836,387.765z
		"/>
	<path d="M579.793,380.679c3.281,0.236,5.866-0.644,7.332-1.804c1.049-0.831,1.4-1.369,1.579-1.82l1.958-0.073
		c-0.136,0.439-0.571,1.189-1.854,2.204c-2.465,1.951-6.662,2.919-10.621,2.598c-4.01-0.325-5.7-1.727-3.353-3.585
		c2.632-2.083,7.108-2.316,9.538-2.119c0.49,0.04,0.855,0.084,1.095,0.133L579.793,380.679z M582.354,377.151
		c-1.481-0.135-4.283-0.014-5.916,1.278c-1.498,1.187,0.106,1.869,1.652,2.097L582.354,377.151z"/>
	<path d="M583.866,374.454c-1.391-0.112-2.499-0.188-3.641-0.236l1.298-1.028l2.24,0.108l0.033-0.025
		c-0.829-0.416-1.125-1.254,0.207-2.309c1.116-0.884,3.942-2.166,8.47-1.799l7.887,0.64l-1.466,1.16l-7.611-0.617
		c-2.131-0.173-4.414,0.063-5.797,1.157c-0.949,0.752-0.58,1.436,0.492,1.755c0.233,0.077,0.637,0.139,1.018,0.17l7.969,0.646
		l-1.466,1.16L583.866,374.454z"/>
	<path d="M597.379,366.758c3.281,0.237,5.866-0.644,7.332-1.804c1.049-0.83,1.399-1.368,1.579-1.818l1.958-0.074
		c-0.136,0.439-0.571,1.188-1.854,2.204c-2.465,1.951-6.663,2.919-10.622,2.598c-4.01-0.325-5.699-1.728-3.351-3.586
		c2.631-2.083,7.107-2.315,9.537-2.118c0.49,0.039,0.855,0.084,1.094,0.133L597.379,366.758z M599.94,363.23
		c-1.481-0.135-4.283-0.013-5.916,1.279c-1.498,1.186,0.106,1.868,1.652,2.096L599.94,363.23z"/>
</g>
<g>
	<path d="M513.612,461.184l-4.354,3.432l6.629,0.552l4.871-3.839l1.992,0.165l-6.34,4.996l-18.389-1.53l6.09-4.799l1.994,0.166
		l-4.621,3.642l5.811,0.483l4.354-3.432L513.612,461.184z"/>
	<path d="M518.938,458.269l0.033-0.025c-0.263-0.196-0.598-0.457-0.799-0.678l-2.172-2.259l1.752-1.381l2.312,2.911l11.327-2.154
		l-1.785,1.407l-9.126,1.652l0.642,0.708l4.965,0.413l-1.468,1.157l-19.369-1.611l1.468-1.157L518.938,458.269z"/>
	<path d="M513.374,452.006l1.468-1.156l19.369,1.611l-1.468,1.157L513.374,452.006z"/>
	<path d="M521.714,448.689c-0.55,0.433-1.625,0.663-2.473,0.593c-0.844-0.07-1.144-0.429-0.576-0.876s1.618-0.68,2.462-0.609
		c0.848,0.07,1.188,0.419,0.604,0.879L521.714,448.689z M536.646,450.542l-13.205-1.099l1.468-1.158l13.205,1.1L536.646,450.542z"/>
	<path d="M531.657,446.726c-1.691-0.141-3.074-0.241-4.38-0.307l1.318-1.038l2.349,0.123l0.033-0.026
		c-1.053-0.597-1.013-1.437,0.289-2.462c1.968-1.552,6.137-2.483,10.146-2.15c4.746,0.396,5.308,1.997,3.422,3.483
		c-1.084,0.854-2.764,1.514-4.558,1.786l-0.033,0.026l7.174,0.597l-1.468,1.157L531.657,446.726z M536.642,445.861
		c0.328,0.027,0.697,0.044,1.049,0.029c1.914-0.059,3.961-0.673,4.996-1.488c1.552-1.224,0.378-2.105-2.649-2.357
		c-2.646-0.22-5.746,0.248-7.298,1.472c-1.001,0.788-0.806,1.634,0.712,2.006c0.295,0.055,0.599,0.123,0.899,0.148L536.642,445.861z
		"/>
	<path d="M535.441,437.229l3.162,0.263l2.103-1.656l1.828,0.152l-2.103,1.656l7.121,0.593c1.637,0.137,2.849-0.01,3.666-0.654
		c0.4-0.315,0.579-0.504,0.687-0.685l1.895,0.1c-0.119,0.237-0.407,0.605-0.975,1.054c-0.684,0.538-1.615,0.94-2.593,1.164
		c-1.139,0.255-2.477,0.288-4.031,0.159l-7.203-0.6l-1.251,0.985l-1.828-0.151l1.251-0.986l-2.428-0.202L535.441,437.229z"/>
	<path d="M540.63,433.78c-0.551,0.435-1.624,0.664-2.472,0.594c-0.844-0.07-1.145-0.429-0.576-0.876
		c0.566-0.447,1.617-0.68,2.461-0.609c0.848,0.07,1.188,0.419,0.604,0.879L540.63,433.78z M555.562,435.633l-13.205-1.099
		l1.468-1.157l13.205,1.1L555.562,435.633z"/>
	<path d="M553.785,430.806l0.033-0.026c-0.263-0.196-0.598-0.457-0.799-0.678l-2.172-2.259l1.752-1.381l2.313,2.91l11.326-2.152
		l-1.785,1.406l-9.127,1.653l0.643,0.708l4.965,0.413l-1.468,1.156l-19.369-1.611l1.468-1.157L553.785,430.806z"/>
	<path d="M570.682,424.668l-15.142-5.302l1.15-0.906l15.108,5.327L570.682,424.668z"/>
	<path d="M562.818,412.777c-0.468,0.368-1.43,0.579-2.166,0.518c-0.764-0.063-1.043-0.392-0.575-0.761
		c0.466-0.367,1.4-0.581,2.193-0.516c0.736,0.062,1.048,0.364,0.564,0.745L562.818,412.777z M565.871,410.371
		c-0.468,0.368-1.413,0.565-2.149,0.504c-0.764-0.063-1.043-0.391-0.575-0.76c0.467-0.367,1.4-0.581,2.193-0.516
		c0.736,0.062,1.048,0.364,0.548,0.759L565.871,410.371z M576.169,414.354l4.615,1.401l-1.501,1.184l-14.569-4.541l1.769-1.394
		l22.226-1.493l-1.551,1.222l-7.001,0.479L576.169,414.354z M578.016,411.28l-6.408,0.44c-1.451,0.098-2.711,0.139-3.939,0.182
		l-0.034,0.025c0.896,0.221,1.859,0.46,2.762,0.725l4.217,1.311L578.016,411.28z"/>
	<path d="M593.777,403.755l-0.033,0.026c0.85,0.449,0.984,1.244-0.317,2.271c-1.885,1.485-6.064,2.475-10.104,2.139
		c-4.936-0.41-5.167-2.13-3.465-3.472c1.251-0.986,3.094-1.559,4.777-1.769l0.034-0.026l-1.944-0.205l1.401-1.104
		c1.042,0.13,2.171,0.238,3.563,0.354l14.975,1.247l-1.468,1.157L593.777,403.755z M587.939,403.27
		c-0.355-0.029-0.725-0.047-1.074-0.031c-1.708,0.061-3.731,0.562-4.832,1.429c-1.519,1.197-0.333,2.095,2.638,2.343
		c2.648,0.22,5.681-0.197,7.298-1.472c0.951-0.75,0.813-1.474-0.517-1.875c-0.262-0.08-0.675-0.157-1.03-0.188L587.939,403.27z"/>
	<path d="M602.839,395.234c1.365,0.114,2.581,0.201,3.668,0.248l-1.301,1.025l-2.238-0.113l-0.033,0.026
		c0.695,0.378,1.219,1.177-0.216,2.308c-1.268,0.999-3.959,2.098-8.566,1.714l-7.723-0.643l1.468-1.157l7.285,0.606
		c2.51,0.209,4.712-0.028,6.029-1.067c0.984-0.776,0.55-1.408-0.273-1.71c-0.245-0.092-0.632-0.168-1.095-0.207l-8.076-0.672
		l1.468-1.157L602.839,395.234z"/>
	<path d="M611.398,388.868c1.146,0.096,2.297,0.163,3.282,0.172l-1.317,1.038l-1.798-0.033l-0.05,0.04
		c0.604,0.428,0.645,1.202-0.507,2.109c-1.634,1.288-4.35,1.789-6.26,1.63c-3.191-0.266-3.202-1.778-0.055-4.234l-0.273-0.023
		c-1.092-0.09-3.267-0.111-4.891,1.193c-0.768,0.604-1.197,1.252-1.136,1.751l-1.943,0.129c-0.014-0.583,0.505-1.397,1.523-2.199
		c2.484-1.958,5.842-2.203,8.486-1.983L611.398,388.868z M606.391,389.702c-1.656,1.258-3.012,2.729-0.445,2.942
		c1.582,0.132,2.923-0.309,3.657-0.888c1.067-0.841,0.662-1.471-0.225-1.748c-0.194-0.06-0.45-0.096-0.696-0.116L606.391,389.702z"
		/>
	<path d="M602.25,384.576l3.162,0.263l2.103-1.657l1.828,0.152l-2.103,1.657l7.121,0.593c1.637,0.136,2.849-0.011,3.666-0.655
		c0.4-0.315,0.579-0.503,0.687-0.684l1.895,0.1c-0.119,0.237-0.407,0.605-0.975,1.052c-0.684,0.539-1.615,0.941-2.593,1.166
		c-1.139,0.254-2.478,0.288-4.032,0.158l-7.203-0.6l-1.251,0.986l-1.828-0.152l1.251-0.986l-2.428-0.201L602.25,384.576z"/>
	<path d="M625.855,380.493c-2.168,1.709-6.487,2.833-10.663,2.485c-4.418-0.368-5.224-1.991-3.006-3.739
		c2.319-1.827,6.643-2.834,10.652-2.501c4.91,0.409,4.953,2.229,3.034,3.741L625.855,380.493z M624.107,380.304
		c1.401-1.104,0.296-2.112-2.704-2.362c-2.236-0.186-5.73,0.119-7.466,1.487c-1.718,1.354,0.15,2.164,2.658,2.372
		c2.893,0.241,6.077-0.366,7.495-1.484L624.107,380.304z"/>
	<path d="M622.362,375.071c-1.555-0.13-2.91-0.228-4.188-0.29l1.284-1.012l2.66,0.162l0.051-0.039
		c-1.406-0.438-1.625-1.24-0.641-2.016c0.15-0.119,0.294-0.208,0.482-0.309l2.238,0.186c-0.194,0.13-0.372,0.246-0.571,0.403
		c-1.035,0.815-0.489,1.5,1.084,1.806c0.324,0.056,0.688,0.101,1.097,0.135l7.039,0.586l-1.469,1.157L622.362,375.071z"/>
</g>
</svg>
